<?xml version="1.0" standalone="no"?>
<!DOCTYPE svg PUBLIC "-//W3C//DTD SVG 20010904//EN"
 "http://www.w3.org/TR/2001/REC-SVG-20010904/DTD/svg10.dtd">
<svg version="1.0" xmlns="http://www.w3.org/2000/svg"
 width="200.000000pt" height="200.000000pt" viewBox="0 0 200.000000 200.000000"
 preserveAspectRatio="xMidYMid meet">
<metadata>
Created by potrace 1.14, written by Peter Selinger 2001-2017
</metadata>
<g transform="translate(0.000000,200.000000) scale(0.100000,-0.100000)"
fill="#000000" stroke="none">
<path d="M1535 1976 c18 -26 12 -47 -21 -84 -13 -14 -24 -29 -24 -33 0 -13
-46 -59 -59 -59 -6 0 -19 -16 -28 -35 -9 -19 -20 -35 -24 -35 -4 0 -13 -17
-20 -37 -6 -21 -23 -59 -36 -85 -14 -27 -22 -54 -20 -61 4 -8 6 -7 6 2 1 8 7
22 15 30 8 9 33 52 55 96 24 46 60 98 86 122 25 23 45 48 45 56 0 7 30 43 67
80 l67 67 -62 0 -62 0 15 -24z"/>
<path d="M1853 1971 c-41 -28 -66 -50 -171 -148 -59 -56 -77 -65 -67 -33 4 13
2 20 -7 20 -31 -1 -42 -20 -44 -74 -2 -61 -15 -86 -46 -86 -10 0 -17 -4 -13
-9 3 -6 -3 -25 -14 -45 -14 -25 -16 -36 -8 -39 17 -6 -32 -57 -55 -57 -22 0
-23 9 -1 39 18 26 34 97 26 118 -9 23 -63 -13 -63 -42 0 -14 -9 -30 -20 -37
-11 -7 -20 -21 -20 -30 0 -10 -9 -27 -20 -38 -11 -11 -20 -26 -20 -34 0 -8 -7
-22 -16 -30 -13 -14 -13 -16 0 -16 17 0 52 46 67 90 14 38 39 40 39 2 0 -16
10 -38 23 -50 12 -12 33 -33 46 -46 14 -14 27 -23 30 -21 2 3 -8 16 -22 29
-15 14 -27 30 -27 36 0 21 36 8 58 -21 20 -24 22 -32 12 -44 -10 -12 -9 -15 8
-15 32 0 32 23 1 65 -34 45 -36 55 -11 55 17 0 42 -41 42 -68 0 -19 24 -9 28
12 2 10 -3 25 -11 34 -20 23 -31 62 -18 62 6 0 8 7 5 15 -4 10 0 15 15 15 14
0 21 -6 21 -20 0 -13 7 -20 19 -20 12 0 21 -8 24 -22 4 -23 4 -23 6 -1 0 12
-5 28 -13 35 -25 26 -29 57 -10 86 10 15 21 52 24 82 4 44 9 56 24 58 11 3 26
-4 33 -14 20 -28 113 -92 183 -126 36 -17 67 -35 70 -38 3 -4 13 -9 23 -13 16
-6 17 8 17 203 l0 210 -52 0 c-41 0 -62 -7 -95 -29z m-45 -163 c93 -70 112
-94 29 -38 -24 16 -57 34 -73 40 -27 9 -27 8 11 -25 22 -20 54 -42 70 -50 28
-14 124 -95 112 -95 -29 0 -174 85 -219 130 l-36 34 21 22 c12 12 23 22 25 23
2 1 29 -18 60 -41z m-220 -200 c-5 -15 -48 -24 -48 -10 0 14 12 22 33 22 10 0
17 -5 15 -12z"/>
<path d="M1656 1834 c-6 -15 -4 -15 11 -3 10 7 20 15 22 16 2 2 -3 3 -11 3 -9
0 -19 -7 -22 -16z"/>
<path d="M366 1748 c-7 -34 -3 -44 13 -33 13 7 15 65 2 65 -5 0 -11 -14 -15
-32z"/>
<path d="M457 1767 c-3 -7 -2 -19 3 -26 5 -10 8 -9 13 2 3 7 2 19 -3 26 -5 10
-8 9 -13 -2z"/>
<path d="M278 1731 c-22 -50 -22 -61 -3 -61 17 0 28 35 23 75 -3 25 -4 25 -20
-14z"/>
<path d="M0 1646 c0 -68 4 -106 11 -106 5 0 7 4 4 10 -3 6 1 7 10 4 9 -4 14
-13 11 -21 -3 -8 -2 -11 3 -8 5 3 13 -5 17 -17 4 -13 2 -24 -4 -26 -5 -1 -8
-13 -6 -25 2 -12 1 -15 -2 -7 -4 8 -13 23 -21 32 -8 9 -12 21 -9 27 4 5 2 12
-4 16 -12 7 -14 -383 -2 -401 4 -6 16 -14 28 -18 12 -3 34 -20 50 -36 26 -28
83 -60 105 -60 5 0 9 11 9 24 0 24 23 56 41 56 16 0 10 48 -7 54 -11 4 -15 14
-12 31 3 14 0 33 -7 42 -7 9 -10 24 -7 32 3 9 1 12 -6 7 -8 -5 -10 -2 -6 8 4
10 1 16 -8 16 -8 0 -19 16 -25 35 -6 19 -7 33 -2 29 16 -9 10 7 -19 55 -15 25
-33 65 -40 88 -7 23 -19 49 -27 57 -8 8 -15 19 -15 25 0 5 -12 23 -26 40 -25
30 -25 31 -4 31 11 0 34 -7 50 -15 32 -17 31 -19 34 37 2 30 16 31 41 4 30
-33 45 -26 45 20 0 31 -14 47 -22 25 -2 -6 -27 -2 -58 9 -30 10 -70 21 -87 25
l-33 7 0 -106z m90 -208 c0 -6 -7 -5 -15 2 -8 7 -15 17 -15 22 0 6 7 5 15 -2
8 -7 15 -17 15 -22z m19 -66 c7 -25 7 -32 -4 -32 -8 0 -11 7 -8 19 3 10 0 22
-6 25 -6 4 -11 15 -11 24 0 24 19 2 29 -36z"/>
<path d="M1570 1536 c0 -2 8 -10 18 -17 15 -13 16 -12 3 4 -13 16 -21 21 -21
13z"/>
<path d="M1270 1485 c0 -8 5 -15 10 -15 6 0 10 7 10 15 0 8 -4 15 -10 15 -5 0
-10 -7 -10 -15z"/>
<path d="M820 1365 c0 -8 7 -15 15 -15 8 0 15 7 15 15 0 8 -7 15 -15 15 -8 0
-15 -7 -15 -15z"/>
<path d="M1280 1318 c-26 -40 -31 -58 -15 -58 8 0 14 3 13 8 -1 4 3 17 11 30
17 31 10 48 -9 20z"/>
<path d="M640 1320 c0 -5 7 -10 15 -10 8 0 15 5 15 10 0 6 -7 10 -15 10 -8 0
-15 -4 -15 -10z"/>
<path d="M848 1223 c6 -10 8 -23 4 -29 -10 -13 -54 -41 -77 -47 -11 -3 0 -5
25 -4 30 1 49 8 58 20 16 21 12 69 -6 75 -11 3 -12 0 -4 -15z"/>
<path d="M1217 1213 c-4 -3 -7 -17 -7 -30 0 -16 6 -23 18 -23 14 0 19 8 19 30
0 28 -15 39 -30 23z"/>
<path d="M1312 1172 c-9 -12 -14 -14 -18 -4 -3 6 -12 12 -20 12 -11 0 -12 -4
-2 -19 9 -15 9 -23 -1 -35 -8 -9 -10 -16 -5 -16 14 0 28 13 48 43 19 31 18 46
-2 19z"/>
<path d="M675 1170 c-3 -6 1 -7 9 -4 18 7 21 14 7 14 -6 0 -13 -4 -16 -10z"/>
<path d="M854 1079 l1 -52 -55 -20 c-30 -10 -77 -22 -104 -26 -43 -5 -51 -10
-57 -33 -4 -16 -3 -30 2 -34 5 -3 9 -14 9 -25 0 -11 7 -19 18 -19 26 0 83 38
89 60 3 11 11 16 19 13 8 -3 14 0 14 7 0 8 9 10 26 6 16 -4 23 -3 19 3 -3 7 0
8 9 5 11 -4 16 0 16 10 0 9 5 16 11 16 5 0 7 5 4 10 -4 6 7 10 27 10 29 1 31
2 16 14 -10 7 -22 24 -28 37 -6 13 -17 35 -24 48 -13 21 -14 19 -12 -30z"/>
<path d="M965 1059 c-4 -6 -5 -12 -2 -15 2 -3 7 2 10 11 7 17 1 20 -8 4z"/>
<path d="M234 1029 c-8 -14 10 -32 28 -27 11 2 10 7 -4 20 -11 11 -20 14 -24
7z"/>
<path d="M1120 1010 c0 -5 7 -7 15 -4 8 4 15 8 15 10 0 2 -7 4 -15 4 -8 0 -15
-4 -15 -10z"/>
<path d="M220 970 c0 -5 10 -10 23 -12 15 -2 23 -11 25 -30 3 -26 2 -27 -47
-26 -27 0 -55 -3 -61 -7 -6 -4 -30 -9 -53 -12 -52 -5 -73 -23 -31 -24 20 -1
23 -3 9 -6 -11 -3 -24 -9 -29 -14 -6 -5 -20 -9 -33 -9 -25 0 -31 -15 -10 -23
9 -4 9 -6 0 -6 -7 -1 -13 -7 -13 -15 0 -8 6 -17 13 -19 10 -4 10 -6 0 -6 -23
-2 -15 -51 10 -61 13 -5 16 -9 7 -10 -11 0 -9 -4 5 -12 11 -6 26 -20 33 -30
23 -31 30 -20 34 55 3 62 8 80 31 110 32 42 69 52 158 44 l60 -5 -26 24 c-14
13 -23 28 -20 34 3 5 1 19 -5 30 -7 13 -7 20 0 20 5 0 10 4 10 8 0 4 -20 9
-45 10 -25 1 -45 -3 -45 -8z"/>
<path d="M615 970 c-3 -5 -1 -10 4 -10 6 0 11 5 11 10 0 6 -2 10 -4 10 -3 0
-8 -4 -11 -10z"/>
<path d="M1008 869 c-32 -32 -81 -70 -110 -85 -29 -14 -61 -33 -71 -42 -14
-12 -22 -13 -43 -4 -27 13 -26 6 3 -27 8 -9 22 -26 31 -39 14 -18 32 -25 92
-33 82 -11 112 -22 149 -54 18 -15 25 -17 28 -7 13 36 136 62 203 43 18 -5 28
-3 35 9 9 15 14 16 45 4 27 -10 30 -13 13 -13 -13 -1 -23 -5 -23 -11 0 -5 -7
-7 -15 -4 -8 4 -15 4 -15 1 0 -7 42 -80 50 -87 3 -3 12 -19 19 -37 11 -27 19
-32 61 -38 26 -4 59 -13 74 -20 14 -8 65 -21 113 -30 48 -9 115 -30 149 -46
35 -16 70 -29 78 -29 8 0 18 -5 21 -10 3 -5 14 -10 23 -10 9 0 28 -9 42 -20
14 -11 28 -20 33 -20 4 0 7 49 7 109 l0 109 -31 6 c-17 3 -50 6 -74 6 -23 0
-45 3 -49 7 -4 4 -35 13 -69 20 -100 20 -316 94 -350 119 -18 13 -52 36 -76
51 -112 71 -170 114 -222 164 -31 30 -58 59 -60 65 -2 6 -30 -15 -61 -47z
m247 -179 c3 -5 2 -10 -4 -10 -5 0 -13 5 -16 10 -3 6 -2 10 4 10 5 0 13 -4 16
-10z m59 -42 c-8 -13 -33 3 -27 17 4 11 8 12 18 2 7 -7 11 -15 9 -19z m-177 6
c-3 -3 -12 -4 -19 -1 -8 3 -5 6 6 6 11 1 17 -2 13 -5z"/>
<path d="M603 858 c-32 -11 -48 -32 -37 -49 8 -13 74 -11 74 2 0 7 -9 9 -21 6
-15 -4 -19 -2 -15 10 3 8 6 17 6 19 0 2 7 4 15 4 8 0 15 5 15 10 0 6 -1 10 -2
9 -2 -1 -17 -6 -35 -11z"/>
<path d="M657 799 c7 -7 15 -10 18 -7 3 3 -2 9 -12 12 -14 6 -15 5 -6 -5z"/>
<path d="M300 528 c0 -15 5 -30 10 -33 6 -3 10 -13 10 -21 0 -12 -7 -14 -32
-8 -18 4 -41 8 -50 8 -10 0 -18 4 -18 8 0 4 -12 0 -27 -7 -26 -14 -28 -13 -39
14 -14 34 -34 49 -34 26 0 -9 -14 -22 -31 -29 -21 -9 -27 -15 -18 -19 8 -3 -6
-6 -31 -8 l-45 -2 40 -7 40 -7 -40 -3 c-39 -2 -40 -2 -10 -10 28 -7 28 -8 8
-15 -30 -10 -38 -45 -10 -46 12 -1 27 -2 32 -4 6 -1 18 -3 27 -3 12 -2 18 -13
20 -44 l4 -43 7 40 c17 82 43 115 103 126 45 9 95 3 92 -10 -1 -3 2 -14 7 -24
10 -24 -13 -49 -44 -47 -59 4 -64 -2 -16 -19 115 -43 114 -42 96 -70 -6 -9
-18 -12 -37 -7 -23 6 -26 5 -15 -7 6 -8 23 -18 36 -21 31 -8 32 -21 1 -41 -18
-12 -30 -13 -50 -5 -33 12 -36 12 -36 1 0 -5 10 -11 22 -14 34 -9 12 -21 -33
-18 -26 1 -38 -2 -34 -9 3 -5 16 -11 28 -11 18 -1 19 -2 4 -6 -29 -7 -75 17
-108 56 l-29 36 6 -31 c5 -28 3 -33 -22 -42 -16 -6 -22 -11 -14 -11 8 -1 26
-10 40 -21 14 -11 39 -20 55 -20 21 -1 25 -3 13 -8 -10 -4 24 -8 75 -9 51 0
153 -3 228 -6 75 -3 192 0 260 6 156 14 217 12 321 -9 46 -9 110 -20 143 -24
45 -5 51 -8 25 -9 -32 -3 -29 -4 25 -17 69 -16 535 -30 474 -14 -20 5 -78 11
-130 14 -56 2 -122 13 -164 25 -123 38 -138 41 -267 41 -70 0 -129 4 -132 9
-17 26 -252 41 -268 17 -7 -11 -135 -17 -171 -8 -10 3 -16 11 -13 18 4 10 -3
14 -25 14 -20 0 -28 4 -23 12 4 7 3 8 -4 4 -34 -21 -90 66 -122 191 -10 40
-28 85 -40 100 -12 15 -33 46 -46 68 -22 38 -23 39 -24 13z"/>
<path d="M1120 420 c0 -47 -15 -57 -61 -41 -20 7 -37 7 -48 1 -13 -8 -11 -9
11 -10 36 0 42 -13 23 -50 -21 -40 -6 -70 34 -70 23 0 30 -5 34 -29 8 -39 36
-48 58 -20 15 20 19 21 48 10 41 -17 79 -7 83 22 3 20 8 22 64 21 41 -1 78 -8
108 -22 25 -12 48 -22 50 -22 3 0 22 -11 42 -25 22 -15 51 -25 73 -25 20 0 54
-5 76 -10 54 -12 98 -14 170 -5 73 8 83 15 24 16 -78 1 -193 8 -231 14 -28 5
-38 12 -38 25 0 17 -25 27 -82 33 -9 1 -14 6 -11 11 4 5 -1 7 -10 3 -13 -5
-16 -1 -14 16 1 13 -3 21 -10 20 -7 -2 -13 3 -13 10 0 8 -12 24 -26 38 -14 13
-30 33 -34 44 -5 12 -7 -3 -4 -38 6 -63 1 -79 -21 -71 -8 4 -13 9 -11 13 2 3
-17 6 -42 6 -68 1 -102 12 -102 34 0 10 -9 26 -20 36 -12 10 -19 24 -16 31 3
8 -7 11 -32 9 -40 -2 -52 7 -52 43 0 12 -4 22 -10 22 -5 0 -10 -18 -10 -40z
m62 -52 c-23 -23 -13 -38 23 -38 19 0 35 -4 35 -10 0 -5 -7 -10 -16 -10 -8 0
-12 -4 -9 -10 9 -15 0 -12 -39 10 -44 27 -53 48 -23 60 32 13 43 12 29 -2z
m-74 -58 c7 -11 8 -20 4 -20 -5 0 -17 9 -27 20 -14 15 -15 20 -4 20 8 0 20 -9
27 -20z m62 -44 c-1 -21 -1 -21 -15 -2 -21 27 -20 53 0 36 8 -7 15 -22 15 -34z
m100 -6 c13 -13 15 -20 7 -20 -14 0 -37 20 -37 32 0 13 9 9 30 -12z m-60 0 c0
-5 -2 -10 -4 -10 -3 0 -8 5 -11 10 -3 6 -1 10 4 10 6 0 11 -4 11 -10z"/>
<path d="M86 262 c-2 -4 -1 -14 5 -22 7 -12 9 -10 9 8 0 23 -5 28 -14 14z"/>
<path d="M1979 114 c-10 -13 -10 -17 2 -25 12 -8 11 -11 -3 -23 -13 -10 -15
-15 -6 -24 9 -9 7 -15 -8 -27 -18 -14 -18 -14 9 -15 27 0 27 1 27 65 0 36 -2
65 -4 65 -2 0 -9 -7 -17 -16z"/>
</g>
</svg>
